<?xml version="1.0" encoding="UTF-8" standalone="no"?>
<svg
        width="16mm"
        height="16mm"
        viewBox="0 0 16 16"
        version="1.1"
        xmlns="http://www.w3.org/2000/svg"
        style="width: 32px;">
    <defs id="defs1" />
    <g id="layer1">
        <ellipse
                fill="currentColor"
                cx="13.05099"
                cy="0.18812709"
                rx="4.1961079"
                ry="1.6309127"
                transform="matrix(0.93154451,0.36362731,-0.3531623,0.93556207,0,0)" />
        <path
                fill="currentColor"
                d="M 8.1792867,3.403673 9.4645476,0.05545324 16,0 v 6.4475203 z"/>
        <path
                fill="currentColor"
                d="m 4.8977483,16 1.6544827,-4.228433 5.057922,1.941554 c 0,0 1.450287,0.392216 1.907976,-0.800104 0.457688,-1.192319 2.495842,-6.5018907 2.495842,-6.5018907 L 16.000001,16 Z"/>
        <path
                fill="currentColor"
                d="m 9.5607967,3.933985 c 0.4815653,6.276801 0.4815653,6.276801 0.4815653,6.276801 l 4.576356,-4.3352467 z"/>
        <path
                fill="currentColor"
                d="M 4.1058967,0 5.3669938,5.6602718 7.5600927,5.0167284 9.584674,11.403105 6.1411331,8.7132446 3.3225279,8.999293 -0.0326114,6.3433661 0,0 Z"/>
    </g>
</svg>